C:\OpenCap\opencap-processing\Data\7866dab3-7210-45d6-b98e-60491a15613b\OpenSimData\Dynamics\TRJave25\GRF_resultant_TRJave25_0.mot
version=1
nRows=12
nColumns=19
inDegrees=yes
endheader 
time	ground_force_right_vx	ground_force_right_vy	ground_force_right_vz	ground_force_right_px	ground_force_right_py	ground_force_right_pz	ground_torque_right_x	ground_torque_right_y	ground_torque_right_z	ground_force_left_vx	ground_force_left_vy	ground_force_left_vz	ground_force_left_px	ground_force_left_py	ground_force_left_pz	ground_torque_left_x	ground_torque_left_y	ground_torque_left_z	
          6.32000000	        -57.28509012	         32.77118405	          5.10090347	         -5.30863651	          0.00000000	          0.41268255	          0.00000000	          0.08417844	          0.00000000	         -0.00000000	          0.00000000	          0.00000000	         -5.86982551	          0.00000000	          0.14325269	          0.00000000	         -0.00000000	          0.00000000	
          6.33000000	       -151.38516250	        108.83045769	         26.62041695	         -5.29436535	          0.00000000	          0.40768977	          0.00000000	          0.10067094	          0.00000000	         -0.00000934	          0.00000336	          0.00000301	         -5.93357703	          0.00000000	          0.31016338	          0.00000000	         -0.00000000	          0.00000000	
          6.34000000	       -193.76933635	        166.03677550	          7.55365348	         -5.28158382	          0.00000000	          0.40324642	          0.00000000	          0.14774014	          0.00000000	         -0.00010167	          0.00003401	          0.00003520	         -5.88847055	          0.00000000	          0.29646938	          0.00000000	          0.00000000	          0.00000000	
          6.35000000	       -141.00504613	        275.85584334	         11.79011446	         -5.26949195	          0.00000000	          0.40280148	          0.00000000	          0.73988609	          0.00000000	         -0.00091092	          0.00029679	          0.00036456	         -5.84424984	          0.00000000	          0.28118173	          0.00000000	          0.00000000	          0.00000000	
          6.36000000	        -80.44160681	        363.16125947	         16.00753878	         -5.26327461	          0.00000000	          0.40274111	          0.00000000	          1.69668008	          0.00000000	         -0.00270895	          0.00085990	          0.00111635	         -5.79647233	          0.00000000	          0.26522231	          0.00000000	          0.00000000	          0.00000000	
          6.37000000	        -71.41233680	        428.52150928	         24.68865815	         -5.25550283	          0.00000000	          0.40397536	          0.00000000	          4.10691092	          0.00000000	         -0.00664085	          0.00182369	          0.00214296	         -5.73821313	          0.00000000	          0.25036622	          0.00000000	          0.00000000	          0.00000000	
          6.38000000	       -171.49100808	        537.59523055	         71.04395740	         -5.23129880	          0.00000000	          0.40779484	          0.00000000	          5.51845545	          0.00000000	         -0.01749381	          0.00439650	          0.00418675	         -5.67604317	          0.00000000	          0.23818954	          0.00000000	          0.00000000	          0.00000000	
          6.39000000	       -256.16477179	        970.78309953	         17.47708199	         -5.21599780	          0.00000000	          0.40970884	          0.00000000	         10.81033097	          0.00000000	         -0.08915795	          0.02043027	          0.01659142	         -5.61058917	          0.00000000	          0.22764933	          0.00000000	          0.00000000	          0.00000000	
          6.40000000	        -93.85932875	       1262.18692986	          9.74005506	         -5.19848620	          0.00000000	          0.41377785	          0.00000000	         11.15565903	          0.00000000	         -0.54396052	          0.11663109	          0.07928296	         -5.54362027	          0.00000000	          0.21886393	          0.00000000	          0.00000000	          0.00000000	
          6.41000000	       -410.29555098	        379.34665859	        -45.23480905	         -5.18513099	          0.00000000	          0.41674909	          0.00000000	          2.93889995	          0.00000000	         -2.87271614	          0.61096492	          0.31525198	         -5.47650920	          0.00000000	          0.21191629	          0.00000000	          0.00000000	          0.00000000	
          6.42000000	        -63.51569378	       1093.79711485	          5.87243725	         -5.18738347	          0.00000000	          0.41659516	          0.00000000	          9.40338922	          0.00000000	        -10.55491845	          2.12969548	          0.68100084	         -5.40572587	          0.00000000	          0.20705821	          0.00000000	          0.00000000	          0.00000000	
          6.43000000	       -562.54334002	        560.26694316	       -241.40688922	         -5.16182543	          0.00000000	          0.41866882	          0.00000000	         -5.98662262	          0.00000000	        -13.57230816	          2.60432674	          0.15033194	         -5.32778690	          0.00000000	          0.20503629	          0.00000000	         -0.00000000	          0.00000000	
